<?xml version="1.0" standalone="no"?>
<!DOCTYPE svg PUBLIC "-//W3C//DTD SVG 20010904//EN"
 "http://www.w3.org/TR/2001/REC-SVG-20010904/DTD/svg10.dtd">
<svg version="1.0" xmlns="http://www.w3.org/2000/svg"
 width="512.000000pt" height="512.000000pt" viewBox="0 0 512.000000 512.000000"
 preserveAspectRatio="xMidYMid meet">
<metadata>
Created by potrace 1.11, written by Peter Selinger 2001-2013
</metadata>
<g transform="translate(0.000000,512.000000) scale(0.100000,-0.100000)"
fill="#000000" stroke="none">
<path d="M181 5109 c-82 -24 -150 -96 -171 -181 -7 -30 -10 -758 -8 -2393 3
-2301 3 -2351 22 -2389 25 -50 72 -97 122 -122 38 -19 85 -19 2414 -19 2329 0
2376 0 2414 19 50 25 97 72 122 122 19 38 19 85 19 2414 0 2329 0 2376 -19
2414 -25 50 -72 97 -122 122 -38 19 -87 19 -2399 21 -1500 1 -2372 -2 -2394
-8z m723 -615 c8 -20 8 -398 0 -418 -5 -12 -21 -16 -65 -16 l-59 0 0 156 0
156 -39 -31 c-21 -17 -46 -31 -54 -31 -20 0 -59 49 -55 69 2 8 37 41 78 73 71
55 78 58 131 58 43 0 58 -4 63 -16z m3514 4 c7 -7 12 -41 12 -83 0 -42 -5 -76
-12 -83 -17 -17 -609 -17 -626 0 -16 16 -16 150 0 166 17 17 609 17 626 0z
m-774 -574 c14 -5 16 -44 16 -334 l0 -327 -63 -5 c-111 -9 -183 -64 -194 -148
l-6 -40 132 0 131 0 0 -355 0 -355 -130 0 -130 0 0 -655 0 -655 503 0 c378 0
506 -3 515 -12 17 -17 17 -359 0 -376 -9 -9 -137 -12 -515 -12 l-503 0 0 -135
0 -135 -325 0 -325 0 0 135 0 135 -1008 0 c-771 0 -1011 3 -1020 12 -17 17
-17 359 0 376 9 9 249 12 1020 12 l1008 0 0 523 -1 522 -27 -80 c-113 -328
-350 -510 -742 -570 -75 -12 -215 -15 -659 -15 l-565 0 -23 22 -23 21 0 1148
0 1147 32 27 31 26 566 -4 c470 -3 580 -7 648 -20 392 -79 634 -274 744 -602
l23 -70 8 85 c32 343 229 600 522 680 115 32 317 51 360 34z m764 -331 l2
-333 -315 0 -315 0 0 335 0 335 313 -2 312 -3 3 -332z"/>
<path d="M1290 2705 l0 -355 430 0 430 0 0 355 0 355 -430 0 -430 0 0 -355z"/>
</g>
</svg>
